<svg width="545" height="296" viewBox="0 0 545 296" fill="none" xmlns="http://www.w3.org/2000/svg">
<mask id="path-1-outside-1_4454_1916" maskUnits="userSpaceOnUse" x="28.5166" y="88" width="510" height="204" fill="black">
<rect fill="white" x="28.5166" y="88" width="510" height="204"/>
<path d="M33.295 253.098V217.11L115.703 99.2353H165.513V214.502H186.897V253.098H165.513V287H120.919V253.098H33.295ZM124.048 148.263L80.2362 214.502H124.048V148.263ZM208.74 189.206C208.74 159.303 214.477 135.745 225.951 118.533C237.6 101.322 256.289 92.7157 282.02 92.7157C307.751 92.7157 326.353 101.322 337.828 118.533C349.476 135.745 355.3 159.303 355.3 189.206C355.3 219.457 349.476 243.188 337.828 260.4C326.353 277.612 307.751 286.218 282.02 286.218C256.289 286.218 237.6 277.612 225.951 260.4C214.477 243.188 208.74 219.457 208.74 189.206ZM311.489 189.206C311.489 171.646 309.576 158.173 305.751 148.784C301.927 139.222 294.016 134.441 282.02 134.441C270.024 134.441 262.114 139.222 258.289 148.784C254.464 158.173 252.551 171.646 252.551 189.206C252.551 201.028 253.247 210.851 254.638 218.675C256.029 226.324 258.81 232.583 262.983 237.451C267.329 242.145 273.675 244.492 282.02 244.492C290.365 244.492 296.624 242.145 300.797 237.451C305.143 232.583 308.012 226.324 309.402 218.675C310.793 210.851 311.489 201.028 311.489 189.206ZM379.904 253.098V217.11L462.312 99.2353H512.121V214.502H533.506V253.098H512.121V287H467.527V253.098H379.904ZM470.657 148.263L426.845 214.502H470.657V148.263Z"/>
</mask>
<path d="M33.295 253.098V217.11L115.703 99.2353H165.513V214.502H186.897V253.098H165.513V287H120.919V253.098H33.295ZM124.048 148.263L80.2362 214.502H124.048V148.263ZM208.74 189.206C208.74 159.303 214.477 135.745 225.951 118.533C237.6 101.322 256.289 92.7157 282.02 92.7157C307.751 92.7157 326.353 101.322 337.828 118.533C349.476 135.745 355.3 159.303 355.3 189.206C355.3 219.457 349.476 243.188 337.828 260.4C326.353 277.612 307.751 286.218 282.02 286.218C256.289 286.218 237.6 277.612 225.951 260.4C214.477 243.188 208.74 219.457 208.74 189.206ZM311.489 189.206C311.489 171.646 309.576 158.173 305.751 148.784C301.927 139.222 294.016 134.441 282.02 134.441C270.024 134.441 262.114 139.222 258.289 148.784C254.464 158.173 252.551 171.646 252.551 189.206C252.551 201.028 253.247 210.851 254.638 218.675C256.029 226.324 258.81 232.583 262.983 237.451C267.329 242.145 273.675 244.492 282.02 244.492C290.365 244.492 296.624 242.145 300.797 237.451C305.143 232.583 308.012 226.324 309.402 218.675C310.793 210.851 311.489 201.028 311.489 189.206ZM379.904 253.098V217.11L462.312 99.2353H512.121V214.502H533.506V253.098H512.121V287H467.527V253.098H379.904ZM470.657 148.263L426.845 214.502H470.657V148.263Z" fill="#0A0B65"/>
<path d="M33.295 253.098H29.1988V257.194H33.295V253.098ZM33.295 217.11L29.9379 214.763L29.1988 215.82V217.11H33.295ZM115.703 99.2353V95.1391H113.569L112.346 96.8883L115.703 99.2353ZM165.513 99.2353H169.609V95.1391H165.513V99.2353ZM165.513 214.502H161.416V218.598H165.513V214.502ZM186.897 214.502H190.993V210.406H186.897V214.502ZM186.897 253.098V257.194H190.993V253.098H186.897ZM165.513 253.098V249.002H161.416V253.098H165.513ZM165.513 287V291.096H169.609V287H165.513ZM120.919 287H116.822V291.096H120.919V287ZM120.919 253.098H125.015V249.002H120.919V253.098ZM124.048 148.263H128.144V134.645L120.631 146.003L124.048 148.263ZM80.2362 214.502L76.8197 212.242L72.6157 218.598H80.2362V214.502ZM124.048 214.502V218.598H128.144V214.502H124.048ZM37.3912 253.098V217.11H29.1988V253.098H37.3912ZM36.6522 219.457L119.06 101.582L112.346 96.8883L29.9379 214.763L36.6522 219.457ZM115.703 103.332H165.513V95.1391H115.703V103.332ZM161.416 99.2353V214.502H169.609V99.2353H161.416ZM165.513 218.598H186.897V210.406H165.513V218.598ZM182.801 214.502V253.098H190.993V214.502H182.801ZM186.897 249.002H165.513V257.194H186.897V249.002ZM161.416 253.098V287H169.609V253.098H161.416ZM165.513 282.904H120.919V291.096H165.513V282.904ZM125.015 287V253.098H116.822V287H125.015ZM120.919 249.002H33.295V257.194H120.919V249.002ZM120.631 146.003L76.8197 212.242L83.6527 216.762L127.464 150.523L120.631 146.003ZM80.2362 218.598H124.048V210.406H80.2362V218.598ZM128.144 214.502V148.263H119.952V214.502H128.144ZM225.951 118.533L222.559 116.238L222.551 116.249L222.543 116.261L225.951 118.533ZM337.828 118.533L334.42 120.806L334.428 120.817L334.436 120.829L337.828 118.533ZM337.828 260.4L334.436 258.104L334.428 258.116L334.42 258.128L337.828 260.4ZM225.951 260.4L222.543 262.672L222.551 262.684L222.559 262.696L225.951 260.4ZM305.751 148.784L301.948 150.306L301.953 150.318L301.958 150.33L305.751 148.784ZM258.289 148.784L262.082 150.33L262.087 150.318L262.092 150.306L258.289 148.784ZM254.638 218.675L250.605 219.391L250.606 219.399L250.608 219.407L254.638 218.675ZM262.983 237.451L259.873 240.117L259.924 240.176L259.977 240.234L262.983 237.451ZM300.797 237.451L297.741 234.723L297.735 234.73L300.797 237.451ZM309.402 218.675L313.433 219.407L313.434 219.399L313.435 219.391L309.402 218.675ZM212.836 189.206C212.836 159.768 218.492 137.107 229.36 120.806L222.543 116.261C210.462 134.384 204.643 158.837 204.643 189.206H212.836ZM229.344 120.829C240.045 105.017 257.282 96.8119 282.02 96.8119V88.6195C255.297 88.6195 235.154 97.6266 222.559 116.238L229.344 120.829ZM282.02 96.8119C306.76 96.8119 323.894 105.016 334.42 120.806L341.236 116.261C328.813 97.6268 308.741 88.6195 282.02 88.6195V96.8119ZM334.436 120.829C345.465 137.126 351.204 159.778 351.204 189.206H359.397C359.397 158.827 353.488 134.364 341.22 116.238L334.436 120.829ZM351.204 189.206C351.204 218.993 345.46 241.814 334.436 258.104L341.22 262.696C353.492 244.563 359.397 219.921 359.397 189.206H351.204ZM334.42 258.128C323.894 273.917 306.76 282.121 282.02 282.121V290.314C308.741 290.314 328.813 281.307 341.236 262.672L334.42 258.128ZM282.02 282.121C257.282 282.121 240.045 273.917 229.344 258.104L222.559 262.696C235.154 281.307 255.297 290.314 282.02 290.314V282.121ZM229.36 258.128C218.497 241.833 212.836 219.002 212.836 189.206H204.643C204.643 219.911 210.457 244.543 222.543 262.672L229.36 258.128ZM315.585 189.206C315.585 171.447 313.665 157.352 309.545 147.239L301.958 150.33C305.488 158.993 307.392 171.846 307.392 189.206H315.585ZM309.555 147.263C307.351 141.754 303.873 137.425 299.069 134.521C294.31 131.645 288.547 130.345 282.02 130.345V138.537C287.489 138.537 291.679 139.627 294.831 141.533C297.937 143.41 300.327 146.252 301.948 150.306L309.555 147.263ZM282.02 130.345C275.493 130.345 269.73 131.645 264.971 134.521C260.167 137.425 256.689 141.754 254.485 147.263L262.092 150.306C263.713 146.252 266.103 143.41 269.209 141.533C272.361 139.627 276.551 138.537 282.02 138.537V130.345ZM254.495 147.239C250.375 157.352 248.455 171.447 248.455 189.206H256.648C256.648 171.846 258.553 158.993 262.082 150.33L254.495 147.239ZM248.455 189.206C248.455 201.164 249.157 211.247 250.605 219.391L258.671 217.958C257.337 210.455 256.648 200.892 256.648 189.206H248.455ZM250.608 219.407C252.101 227.62 255.136 234.591 259.873 240.117L266.093 234.785C262.484 230.575 259.956 225.029 258.668 217.942L250.608 219.407ZM259.977 240.234C265.317 246.001 272.9 248.588 282.02 248.588V240.396C274.45 240.396 269.342 238.289 265.988 234.668L259.977 240.234ZM282.02 248.588C291.13 248.588 298.674 246.004 303.858 240.172L297.735 234.73C294.574 238.286 289.601 240.396 282.02 240.396V248.588ZM303.852 240.179C308.79 234.649 311.933 227.656 313.433 219.407L305.372 217.942C304.09 224.993 301.496 230.517 297.741 234.723L303.852 240.179ZM313.435 219.391C314.883 211.247 315.585 201.164 315.585 189.206H307.392C307.392 200.892 306.703 210.455 305.369 217.958L313.435 219.391ZM379.904 253.098H375.808V257.194H379.904V253.098ZM379.904 217.11L376.547 214.763L375.808 215.82V217.11H379.904ZM462.312 99.2353V95.1391H460.177L458.954 96.8883L462.312 99.2353ZM512.121 99.2353H516.218V95.1391H512.121V99.2353ZM512.121 214.502H508.025V218.598H512.121V214.502ZM533.506 214.502H537.602V210.406H533.506V214.502ZM533.506 253.098V257.194H537.602V253.098H533.506ZM512.121 253.098V249.002H508.025V253.098H512.121ZM512.121 287V291.096H516.218V287H512.121ZM467.527 287H463.431V291.096H467.527V287ZM467.527 253.098H471.624V249.002H467.527V253.098ZM470.657 148.263H474.753V134.645L467.24 146.003L470.657 148.263ZM426.845 214.502L423.428 212.242L419.225 218.598H426.845V214.502ZM470.657 214.502V218.598H474.753V214.502H470.657ZM384 253.098V217.11H375.808V253.098H384ZM383.261 219.457L465.669 101.582L458.954 96.8883L376.547 214.763L383.261 219.457ZM462.312 103.332H512.121V95.1391H462.312V103.332ZM508.025 99.2353V214.502H516.218V99.2353H508.025ZM512.121 218.598H533.506V210.406H512.121V218.598ZM529.409 214.502V253.098H537.602V214.502H529.409ZM533.506 249.002H512.121V257.194H533.506V249.002ZM508.025 253.098V287H516.218V253.098H508.025ZM512.121 282.904H467.527V291.096H512.121V282.904ZM471.624 287V253.098H463.431V287H471.624ZM467.527 249.002H379.904V257.194H467.527V249.002ZM467.24 146.003L423.428 212.242L430.261 216.762L474.073 150.523L467.24 146.003ZM426.845 218.598H470.657V210.406H426.845V218.598ZM474.753 214.502V148.263H466.56V214.502H474.753Z" fill="#0A0B65" mask="url(#path-1-outside-1_4454_1916)"/>
<mask id="path-3-outside-2_4454_1916" maskUnits="userSpaceOnUse" x="8" y="88" width="510" height="204" fill="black">
<rect fill="white" x="8" y="88" width="510" height="204"/>
<path d="M12.7784 253.098V217.11L95.1863 99.2353H144.996V214.502H166.38V253.098H144.996V287H100.402V253.098H12.7784ZM103.531 148.263L59.7196 214.502H103.531V148.263ZM188.223 189.206C188.223 159.303 193.96 135.745 205.435 118.533C217.083 101.322 235.773 92.7157 261.503 92.7157C287.234 92.7157 305.837 101.322 317.311 118.533C328.96 135.745 334.784 159.303 334.784 189.206C334.784 219.457 328.96 243.188 317.311 260.4C305.837 277.612 287.234 286.218 261.503 286.218C235.773 286.218 217.083 277.612 205.435 260.4C193.96 243.188 188.223 219.457 188.223 189.206ZM290.972 189.206C290.972 171.646 289.06 158.173 285.235 148.784C281.41 139.222 273.5 134.441 261.503 134.441C249.507 134.441 241.597 139.222 237.772 148.784C233.947 158.173 232.035 171.646 232.035 189.206C232.035 201.028 232.73 210.851 234.121 218.675C235.512 226.324 238.294 232.583 242.466 237.451C246.813 242.145 253.158 244.492 261.503 244.492C269.849 244.492 276.107 242.145 280.28 237.451C284.626 232.583 287.495 226.324 288.886 218.675C290.277 210.851 290.972 201.028 290.972 189.206ZM359.387 253.098V217.11L441.795 99.2353H491.605V214.502H512.989V253.098H491.605V287H447.011V253.098H359.387ZM450.14 148.263L406.328 214.502H450.14V148.263Z"/>
</mask>
<path d="M12.7784 253.098V217.11L95.1863 99.2353H144.996V214.502H166.38V253.098H144.996V287H100.402V253.098H12.7784ZM103.531 148.263L59.7196 214.502H103.531V148.263ZM188.223 189.206C188.223 159.303 193.96 135.745 205.435 118.533C217.083 101.322 235.773 92.7157 261.503 92.7157C287.234 92.7157 305.837 101.322 317.311 118.533C328.96 135.745 334.784 159.303 334.784 189.206C334.784 219.457 328.96 243.188 317.311 260.4C305.837 277.612 287.234 286.218 261.503 286.218C235.773 286.218 217.083 277.612 205.435 260.4C193.96 243.188 188.223 219.457 188.223 189.206ZM290.972 189.206C290.972 171.646 289.06 158.173 285.235 148.784C281.41 139.222 273.5 134.441 261.503 134.441C249.507 134.441 241.597 139.222 237.772 148.784C233.947 158.173 232.035 171.646 232.035 189.206C232.035 201.028 232.73 210.851 234.121 218.675C235.512 226.324 238.294 232.583 242.466 237.451C246.813 242.145 253.158 244.492 261.503 244.492C269.849 244.492 276.107 242.145 280.28 237.451C284.626 232.583 287.495 226.324 288.886 218.675C290.277 210.851 290.972 201.028 290.972 189.206ZM359.387 253.098V217.11L441.795 99.2353H491.605V214.502H512.989V253.098H491.605V287H447.011V253.098H359.387ZM450.14 148.263L406.328 214.502H450.14V148.263Z" fill="white"/>
<path d="M12.7784 253.098H8.68221V257.194H12.7784V253.098ZM12.7784 217.11L9.42128 214.763L8.68221 215.82V217.11H12.7784ZM95.1863 99.2353V95.1391H93.052L91.8291 96.8883L95.1863 99.2353ZM144.996 99.2353H149.092V95.1391H144.996V99.2353ZM144.996 214.502H140.9V218.598H144.996V214.502ZM166.38 214.502H170.477V210.406H166.38V214.502ZM166.38 253.098V257.194H170.477V253.098H166.38ZM144.996 253.098V249.002H140.9V253.098H144.996ZM144.996 287V291.096H149.092V287H144.996ZM100.402 287H96.3057V291.096H100.402V287ZM100.402 253.098H104.498V249.002H100.402V253.098ZM103.531 148.263H107.628V134.645L100.115 146.003L103.531 148.263ZM59.7196 214.502L56.3031 212.242L52.0991 218.598H59.7196V214.502ZM103.531 214.502V218.598H107.628V214.502H103.531ZM16.8746 253.098V217.11H8.68221V253.098H16.8746ZM16.1356 219.457L98.5434 101.582L91.8291 96.8883L9.42128 214.763L16.1356 219.457ZM95.1863 103.332H144.996V95.1391H95.1863V103.332ZM140.9 99.2353V214.502H149.092V99.2353H140.9ZM144.996 218.598H166.38V210.406H144.996V218.598ZM162.284 214.502V253.098H170.477V214.502H162.284ZM166.38 249.002H144.996V257.194H166.38V249.002ZM140.9 253.098V287H149.092V253.098H140.9ZM144.996 282.904H100.402V291.096H144.996V282.904ZM104.498 287V253.098H96.3057V287H104.498ZM100.402 249.002H12.7784V257.194H100.402V249.002ZM100.115 146.003L56.3031 212.242L63.1361 216.762L106.948 150.523L100.115 146.003ZM59.7196 218.598H103.531V210.406H59.7196V218.598ZM107.628 214.502V148.263H99.4351V214.502H107.628ZM205.435 118.533L202.042 116.238L202.034 116.249L202.027 116.261L205.435 118.533ZM317.311 118.533L313.903 120.806L313.911 120.817L313.919 120.829L317.311 118.533ZM317.311 260.4L313.919 258.104L313.911 258.116L313.903 258.128L317.311 260.4ZM205.435 260.4L202.027 262.672L202.034 262.684L202.042 262.696L205.435 260.4ZM285.235 148.784L281.432 150.306L281.436 150.318L281.441 150.33L285.235 148.784ZM237.772 148.784L241.566 150.33L241.57 150.318L241.575 150.306L237.772 148.784ZM234.121 218.675L230.088 219.391L230.09 219.399L230.091 219.407L234.121 218.675ZM242.466 237.451L239.356 240.117L239.407 240.176L239.461 240.234L242.466 237.451ZM280.28 237.451L277.224 234.723L277.218 234.73L280.28 237.451ZM288.886 218.675L292.916 219.407L292.917 219.399L292.919 219.391L288.886 218.675ZM192.319 189.206C192.319 159.768 197.976 137.107 208.843 120.806L202.027 116.261C189.945 134.384 184.127 158.837 184.127 189.206H192.319ZM208.827 120.829C219.529 105.017 236.765 96.8119 261.503 96.8119V88.6195C234.78 88.6195 214.638 97.6266 202.042 116.238L208.827 120.829ZM261.503 96.8119C286.244 96.8119 303.377 105.016 313.903 120.806L320.72 116.261C308.297 97.6268 288.225 88.6195 261.503 88.6195V96.8119ZM313.919 120.829C324.948 137.126 330.688 159.778 330.688 189.206H338.88C338.88 158.827 332.971 134.364 320.704 116.238L313.919 120.829ZM330.688 189.206C330.688 218.993 324.944 241.814 313.919 258.104L320.704 262.696C332.976 244.563 338.88 219.921 338.88 189.206H330.688ZM313.903 258.128C303.377 273.917 286.244 282.121 261.503 282.121V290.314C288.225 290.314 308.297 281.307 320.72 262.672L313.903 258.128ZM261.503 282.121C236.765 282.121 219.529 273.917 208.827 258.104L202.042 262.696C214.638 281.307 234.78 290.314 261.503 290.314V282.121ZM208.843 258.128C197.98 241.833 192.319 219.002 192.319 189.206H184.127C184.127 219.911 189.941 244.543 202.027 262.672L208.843 258.128ZM295.068 189.206C295.068 171.447 293.148 157.352 289.028 147.239L281.441 150.33C284.971 158.993 286.876 171.846 286.876 189.206H295.068ZM289.038 147.263C286.835 141.754 283.356 137.425 278.552 134.521C273.794 131.645 268.03 130.345 261.503 130.345V138.537C266.973 138.537 271.162 139.627 274.315 141.533C277.421 143.41 279.81 146.252 281.432 150.306L289.038 147.263ZM261.503 130.345C254.976 130.345 249.213 131.645 244.455 134.521C239.65 137.425 236.172 141.754 233.969 147.263L241.575 150.306C243.197 146.252 245.586 143.41 248.692 141.533C251.845 139.627 256.034 138.537 261.503 138.537V130.345ZM233.979 147.239C229.859 157.352 227.939 171.447 227.939 189.206H236.131C236.131 171.846 238.036 158.993 241.566 150.33L233.979 147.239ZM227.939 189.206C227.939 201.164 228.64 211.247 230.088 219.391L238.154 217.958C236.82 210.455 236.131 200.892 236.131 189.206H227.939ZM230.091 219.407C231.584 227.62 234.62 234.591 239.356 240.117L245.576 234.785C241.968 230.575 239.44 225.029 238.151 217.942L230.091 219.407ZM239.461 240.234C244.8 246.001 252.383 248.588 261.503 248.588V240.396C253.933 240.396 248.825 238.289 245.472 234.668L239.461 240.234ZM261.503 248.588C270.613 248.588 278.158 246.004 283.341 240.172L277.218 234.73C274.057 238.286 269.084 240.396 261.503 240.396V248.588ZM283.335 240.179C288.273 234.649 291.416 227.656 292.916 219.407L284.856 217.942C283.574 224.993 280.98 230.517 277.224 234.723L283.335 240.179ZM292.919 219.391C294.367 211.247 295.068 201.164 295.068 189.206H286.876C286.876 200.892 286.187 210.455 284.853 217.958L292.919 219.391ZM359.387 253.098H355.291V257.194H359.387V253.098ZM359.387 217.11L356.03 214.763L355.291 215.82V217.11H359.387ZM441.795 99.2353V95.1391H439.661L438.438 96.8883L441.795 99.2353ZM491.605 99.2353H495.701V95.1391H491.605V99.2353ZM491.605 214.502H487.509V218.598H491.605V214.502ZM512.989 214.502H517.085V210.406H512.989V214.502ZM512.989 253.098V257.194H517.085V253.098H512.989ZM491.605 253.098V249.002H487.509V253.098H491.605ZM491.605 287V291.096H495.701V287H491.605ZM447.011 287H442.914V291.096H447.011V287ZM447.011 253.098H451.107V249.002H447.011V253.098ZM450.14 148.263H454.236V134.645L446.724 146.003L450.14 148.263ZM406.328 214.502L402.912 212.242L398.708 218.598H406.328V214.502ZM450.14 214.502V218.598H454.236V214.502H450.14ZM363.483 253.098V217.11H355.291V253.098H363.483ZM362.744 219.457L445.152 101.582L438.438 96.8883L356.03 214.763L362.744 219.457ZM441.795 103.332H491.605V95.1391H441.795V103.332ZM487.509 99.2353V214.502H495.701V99.2353H487.509ZM491.605 218.598H512.989V210.406H491.605V218.598ZM508.893 214.502V253.098H517.085V214.502H508.893ZM512.989 249.002H491.605V257.194H512.989V249.002ZM487.509 253.098V287H495.701V253.098H487.509ZM491.605 282.904H447.011V291.096H491.605V282.904ZM451.107 287V253.098H442.914V287H451.107ZM447.011 249.002H359.387V257.194H447.011V249.002ZM446.724 146.003L402.912 212.242L409.745 216.762L453.557 150.523L446.724 146.003ZM406.328 218.598H450.14V210.406H406.328V218.598ZM454.236 214.502V148.263H446.044V214.502H454.236Z" fill="url(#paint0_linear_4454_1916)" mask="url(#path-3-outside-2_4454_1916)"/>
<defs>
<linearGradient id="paint0_linear_4454_1916" x1="160.719" y1="-34.8385" x2="226.915" y2="347.942" gradientUnits="userSpaceOnUse">
<stop stop-color="#00024F"/>
<stop offset="0.503125" stop-color="#504BFF"/>
<stop offset="1" stop-color="#FF1761"/>
</linearGradient>
</defs>
</svg>
