<svg width="18" height="18" viewBox="0 0 18 18" fill="none" xmlns="http://www.w3.org/2000/svg">
<g clip-path="url(#clip0_4448_4392)">
<path fill-rule="evenodd" clip-rule="evenodd" d="M10.71 1.5C11.0248 1.50008 11.3316 1.59921 11.587 1.78336C11.8423 1.9675 12.0333 2.22731 12.1327 2.526L12.54 3.75H15C15.1989 3.75 15.3897 3.82902 15.5303 3.96967C15.671 4.11032 15.75 4.30109 15.75 4.5C15.75 4.69891 15.671 4.88968 15.5303 5.03033C15.3897 5.17098 15.1989 5.25 15 5.25L14.9977 5.30325L14.3475 14.4105C14.3069 14.978 14.0529 15.509 13.6365 15.8967C13.2202 16.2844 12.6724 16.4999 12.1035 16.5H5.8965C5.32759 16.4999 4.77983 16.2844 4.36347 15.8967C3.94712 15.509 3.69308 14.978 3.6525 14.4105L3.00225 5.3025C3.00089 5.28503 3.00014 5.26752 3 5.25C2.80109 5.25 2.61032 5.17098 2.46967 5.03033C2.32902 4.88968 2.25 4.69891 2.25 4.5C2.25 4.30109 2.32902 4.11032 2.46967 3.96967C2.61032 3.82902 2.80109 3.75 3 3.75H5.46L5.86725 2.526C5.96677 2.22719 6.15783 1.96729 6.41332 1.78314C6.66882 1.59898 6.9758 1.49992 7.29075 1.5H10.71ZM6.75 7.5C6.5663 7.50002 6.389 7.56747 6.25172 7.68954C6.11444 7.8116 6.02674 7.97981 6.00525 8.16225L6 8.25V12.75C6.00021 12.9412 6.07341 13.125 6.20464 13.264C6.33586 13.403 6.51521 13.4867 6.70605 13.4979C6.89688 13.5091 7.08478 13.447 7.23137 13.3243C7.37796 13.2016 7.47217 13.0276 7.49475 12.8377L7.5 12.75V8.25C7.5 8.05109 7.42098 7.86032 7.28033 7.71967C7.13968 7.57902 6.94891 7.5 6.75 7.5ZM11.25 7.5C11.0511 7.5 10.8603 7.57902 10.7197 7.71967C10.579 7.86032 10.5 8.05109 10.5 8.25V12.75C10.5 12.9489 10.579 13.1397 10.7197 13.2803C10.8603 13.421 11.0511 13.5 11.25 13.5C11.4489 13.5 11.6397 13.421 11.7803 13.2803C11.921 13.1397 12 12.9489 12 12.75V8.25C12 8.05109 11.921 7.86032 11.7803 7.71967C11.6397 7.57902 11.4489 7.5 11.25 7.5ZM10.71 3H7.29L7.04025 3.75H10.9598L10.71 3Z" fill="white"/>
</g>
<defs>
<clipPath id="clip0_4448_4392">
<rect width="18" height="18" fill="white"/>
</clipPath>
</defs>
</svg>
