<svg width="14" height="14" viewBox="0 0 14 14" fill="none" xmlns="http://www.w3.org/2000/svg">
<path d="M7.82187 0.333828C8.30836 0.331961 8.79485 0.336851 9.2812 0.348495L9.41053 0.353161C9.55987 0.358495 9.7072 0.365161 9.8852 0.373161C10.5945 0.406495 11.0785 0.518495 11.5032 0.683162C11.9432 0.852495 12.3139 1.08183 12.6845 1.45249C13.0234 1.78557 13.2858 2.18846 13.4532 2.63316C13.6179 3.05783 13.7299 3.54249 13.7632 4.25183C13.7712 4.42916 13.7779 4.57716 13.7832 4.72649L13.7872 4.85583C13.799 5.34196 13.8042 5.82823 13.8025 6.3145L13.8032 6.81183V7.68516C13.8048 8.17165 13.7997 8.65814 13.7879 9.1445L13.7839 9.27383C13.7785 9.42316 13.7719 9.57049 13.7639 9.7485C13.7305 10.4578 13.6172 10.9418 13.4532 11.3665C13.2863 11.8117 13.0239 12.2149 12.6845 12.5478C12.3512 12.8867 11.9481 13.149 11.5032 13.3165C11.0785 13.4812 10.5945 13.5932 9.8852 13.6265C9.7072 13.6345 9.55987 13.6412 9.41053 13.6465L9.2812 13.6505C8.79485 13.6623 8.30836 13.6675 7.82187 13.6658L7.32453 13.6665H6.45187C5.96537 13.6681 5.47888 13.663 4.99253 13.6512L4.8632 13.6472C4.70494 13.6414 4.54672 13.6348 4.38853 13.6272C3.6792 13.5938 3.1952 13.4805 2.76987 13.3165C2.32499 13.1494 1.92203 12.887 1.5892 12.5478C1.2499 12.2147 0.98735 11.8115 0.819867 11.3665C0.6552 10.9418 0.5432 10.4578 0.509867 9.7485C0.502442 9.59031 0.495776 9.43208 0.489867 9.27383L0.486534 9.1445C0.474243 8.65815 0.468687 8.17166 0.469867 7.68516V6.3145C0.468006 5.82823 0.472896 5.34196 0.484534 4.85583L0.4892 4.72649C0.494534 4.57716 0.5012 4.42916 0.5092 4.25183C0.542534 3.54183 0.654534 3.05849 0.8192 2.63316C0.986782 2.18824 1.24984 1.78546 1.58987 1.45316C1.92246 1.11366 2.32517 0.850877 2.76987 0.683162C3.1952 0.518495 3.67853 0.406495 4.38853 0.373161L4.8632 0.353161L4.99253 0.349828C5.47866 0.337543 5.96492 0.331987 6.4512 0.333161L7.82187 0.333828ZM7.13653 3.66716C6.69487 3.66091 6.25637 3.74251 5.84652 3.90721C5.43667 4.0719 5.06363 4.31641 4.7491 4.62653C4.43456 4.93665 4.1848 5.30619 4.01433 5.71367C3.84385 6.12115 3.75606 6.55846 3.75606 7.00016C3.75606 7.44187 3.84385 7.87917 4.01433 8.28665C4.1848 8.69414 4.43456 9.06367 4.7491 9.37379C5.06363 9.68391 5.43667 9.92842 5.84652 10.0931C6.25637 10.2578 6.69487 10.3394 7.13653 10.3332C8.02059 10.3332 8.86843 9.98197 9.49356 9.35685C10.1187 8.73173 10.4699 7.88388 10.4699 6.99983C10.4699 6.11577 10.1187 5.26793 9.49356 4.64281C8.86843 4.01768 8.02059 3.66716 7.13653 3.66716ZM7.13653 5.00049C7.40221 4.9956 7.66619 5.04369 7.91306 5.14197C8.15994 5.24024 8.38476 5.38672 8.57439 5.57286C8.76401 5.75899 8.91465 5.98105 9.0175 6.22606C9.12034 6.47106 9.17333 6.73411 9.17338 6.99982C9.17342 7.26554 9.12052 7.5286 9.01775 7.77364C8.91499 8.01868 8.76443 8.24079 8.57486 8.42699C8.3853 8.61318 8.16053 8.75974 7.91368 8.8581C7.66684 8.95645 7.40287 9.00463 7.1372 8.99983C6.60677 8.99983 6.09806 8.78911 5.72299 8.41404C5.34791 8.03897 5.1372 7.53026 5.1372 6.99983C5.1372 6.4694 5.34791 5.96069 5.72299 5.58561C6.09806 5.21054 6.60677 4.99983 7.1372 4.99983L7.13653 5.00049ZM10.6365 2.66716C10.4215 2.67577 10.2181 2.76726 10.0689 2.92248C9.91981 3.07769 9.83653 3.28458 9.83653 3.49983C9.83653 3.71507 9.91981 3.92197 10.0689 4.07718C10.2181 4.23239 10.4215 4.32389 10.6365 4.33249C10.8575 4.33249 11.0695 4.2447 11.2258 4.08842C11.3821 3.93214 11.4699 3.72018 11.4699 3.49916C11.4699 3.27815 11.3821 3.06619 11.2258 2.90991C11.0695 2.75363 10.8575 2.66583 10.6365 2.66583V2.66716Z" fill="#00024F"/>
</svg>
