<svg width="13" height="13" viewBox="0 0 13 13" fill="none" xmlns="http://www.w3.org/2000/svg">
<path fill-rule="evenodd" clip-rule="evenodd" d="M4.71284 4.29299H7.00071V5.43262C7.33027 4.77718 8.17544 4.18827 9.44505 4.18827C11.8789 4.18827 12.4567 5.49299 12.4567 7.88682V12.3203H9.99268V8.43199C9.99268 7.06875 9.66312 6.29997 8.82411 6.29997C7.66046 6.29997 7.17689 7.1285 7.17689 8.43137V12.3203H4.71284V4.29299ZM0.487602 12.2155H2.95165V4.18827H0.487602V12.2155ZM3.30463 1.57083C3.30472 1.77737 3.26376 1.98186 3.18413 2.17242C3.1045 2.36299 2.98778 2.53583 2.84077 2.68089C2.54287 2.97696 2.13963 3.14269 1.71963 3.14167C1.30036 3.14139 0.898058 2.97608 0.599716 2.68151C0.453236 2.53595 0.336917 2.36292 0.257425 2.17233C0.177933 1.98174 0.136831 1.77734 0.136475 1.57083C0.136475 1.15379 0.302798 0.754616 0.600332 0.460162C0.898412 0.165189 1.30089 -0.000184318 1.72024 1.54166e-07C2.14037 1.54166e-07 2.54324 0.165708 2.84077 0.460162C3.13769 0.754616 3.30463 1.15379 3.30463 1.57083Z" fill="#00024F"/>
</svg>
