<svg width="13" height="10" viewBox="0 0 13 10" fill="none" xmlns="http://www.w3.org/2000/svg">
<path d="M12.1752 1.5388C12.4567 2.63654 12.4567 4.9281 12.4567 4.9281C12.4567 4.9281 12.4567 7.21967 12.1752 8.31741C12.0188 8.92418 11.5611 9.40159 10.9814 9.56299C9.92862 9.85621 6.29661 9.85621 6.29661 9.85621C6.29661 9.85621 2.66644 9.85621 1.61183 9.56299C1.02969 9.39913 0.572612 8.92233 0.417993 8.31741C0.136475 7.21967 0.136475 4.9281 0.136475 4.9281C0.136475 4.9281 0.136475 2.63654 0.417993 1.5388C0.57446 0.932028 1.03216 0.454618 1.61183 0.293222C2.66644 -1.10152e-07 6.29661 0 6.29661 0C6.29661 0 9.92862 -1.10152e-07 10.9814 0.293222C11.5635 0.457082 12.0206 0.933876 12.1752 1.5388ZM5.06458 7.08415L8.76066 4.9281L5.06458 2.77206V7.08415Z" fill="#00024F"/>
</svg>
